fd_5_states
version=1
nRows=35
nColumns=17
inDegrees=yes

# SIMM Motion File Header:
name fd_5_states
datacolumns 17
datarows 35
otherdata 1
range 0.410263 0.430001
endheader
time	/jointset/r_shoulder/r_shoulder_elev/value	/jointset/r_shoulder/r_shoulder_elev/speed	/jointset/r_elbow/r_elbow_flex/value	/jointset/r_elbow/r_elbow_flex/speed	/forceset/TRIlong/activation	/forceset/TRIlong/fiber_length	/forceset/TRIlat/activation	/forceset/TRIlat/fiber_length	/forceset/TRImed/activation	/forceset/TRImed/fiber_length	/forceset/BIClong/activation	/forceset/BIClong/fiber_length	/forceset/BICshort/activation	/forceset/BICshort/fiber_length	/forceset/BRA/activation	/forceset/BRA/fiber_length
      0.410263	    -23.441076	    276.253920	    174.265878	    380.446316	      0.020768	      0.167785	      0.237933	      0.115857	      0.235201	      0.110868	      0.991174	      0.058120	      0.544810	      0.056881	      0.021175	      0.040111
      0.411188	    -23.183627	    280.741708	    174.616102	    377.240819	      0.020759	      0.167851	      0.239687	      0.115779	      0.236962	      0.110790	      0.991575	      0.058099	      0.575148	      0.056831	      0.021161	      0.040068
      0.413703	    -22.462245	    292.987539	    175.553004	    367.652912	      0.020734	      0.168039	      0.243586	      0.115570	      0.240874	      0.110581	      0.992576	      0.058047	      0.644276	      0.056665	      0.021123	      0.039957
      0.414394	    -22.258538	    296.362538	    175.806177	    364.790717	      0.020727	      0.168128	      0.244470	      0.115513	      0.241760	      0.110524	      0.992829	      0.058035	      0.660523	      0.056617	      0.021113	      0.039928
      0.415085	    -22.052489	    299.760127	    176.057334	    361.820276	      0.020721	      0.168170	      0.245285	      0.115456	      0.242577	      0.110467	      0.993074	      0.058022	      0.675790	      0.056568	      0.021102	      0.039900
      0.416213	    -21.711198	    305.307367	    176.462685	    356.760580	      0.020710	      0.168267	      0.246481	      0.115365	      0.243775	      0.110376	      0.993456	      0.058004	      0.698818	      0.056489	      0.021086	      0.039856
      0.416952	    -21.484437	    308.939584	    176.724825	    353.306059	      0.020703	      0.168384	      0.247183	      0.115306	      0.244477	      0.110317	      0.993694	      0.057992	      0.712752	      0.056438	      0.021075	      0.039829
      0.417690	    -21.254979	    312.606106	    176.984367	    349.723016	      0.020696	      0.168419	      0.247827	      0.115247	      0.245121	      0.110259	      0.993924	      0.057981	      0.725874	      0.056389	      0.021065	      0.039802
      0.418471	    -21.009177	    316.469362	    177.256150	    345.816491	      0.020689	      0.168493	      0.248451	      0.115186	      0.245745	      0.110198	      0.994158	      0.057970	      0.738952	      0.056338	      0.021054	      0.039774
      0.419253	    -20.760353	    320.326375	    177.524831	    341.787875	      0.020682	      0.168656	      0.249020	      0.115126	      0.246315	      0.110137	      0.994383	      0.057959	      0.751262	      0.056289	      0.021043	      0.039748
      0.419554	    -20.663650	    321.847171	    177.627527	    340.186480	      0.020679	      0.168658	      0.249227	      0.115102	      0.246521	      0.110114	      0.994467	      0.057955	      0.755815	      0.056270	      0.021039	      0.039738
      0.419963	    -20.531621	    323.889639	    177.766189	    337.993184	      0.020675	      0.168671	      0.249495	      0.115071	      0.246789	      0.110083	      0.994579	      0.057950	      0.761835	      0.056246	      0.021033	      0.039724
      0.420005	    -20.518156	    324.096065	    177.780232	    337.768923	      0.020675	      0.168673	      0.249521	      0.115068	      0.246815	      0.110080	      0.994591	      0.057949	      0.762320	      0.056243	      0.021033	      0.039723
      0.420028	    -20.510685	    324.210452	    177.788015	    337.644448	      0.020675	      0.168675	      0.249525	      0.115066	      0.246820	      0.110078	      0.994597	      0.057949	      0.761829	      0.056242	      0.021032	      0.039722
      0.420051	    -20.503212	    324.324780	    177.795794	    337.519888	      0.020675	      0.168676	      0.249527	      0.115065	      0.246823	      0.110076	      0.994603	      0.057949	      0.761252	      0.056240	      0.021032	      0.039722
      0.420166	    -20.465808	    324.895620	    177.834651	    336.895761	      0.020674	      0.168685	      0.249541	      0.115056	      0.246840	      0.110067	      0.994634	      0.057947	      0.758380	      0.056234	      0.021030	      0.039718
      0.420742	    -20.277802	    327.737851	    178.027845	    333.739231	      0.020668	      0.168742	      0.249604	      0.115012	      0.246923	      0.110024	      0.994787	      0.057940	      0.744328	      0.056204	      0.021023	      0.039700
      0.421513	    -20.023661	    331.508045	    178.283497	    329.427314	      0.020662	      0.168921	      0.249683	      0.114955	      0.247025	      0.109967	      0.994985	      0.057930	      0.726299	      0.056172	      0.021012	      0.039676
      0.422284	    -19.766597	    335.311688	    178.535775	    324.990338	      0.020655	      0.168939	      0.249755	      0.114898	      0.247119	      0.109910	      0.995175	      0.057921	      0.709102	      0.056147	      0.021002	      0.039653
      0.422809	    -19.589819	    337.841792	    178.705665	    321.936462	      0.020650	      0.168988	      0.249800	      0.114860	      0.247178	      0.109872	      0.995301	      0.057914	      0.697836	      0.056133	      0.020995	      0.039638
      0.423522	    -19.347750	    341.227646	    178.933689	    317.741764	      0.020644	      0.169187	      0.249858	      0.114809	      0.247253	      0.109821	      0.995466	      0.057906	      0.683091	      0.056118	      0.020985	      0.039619
      0.424235	    -19.103249	    344.655392	    179.158687	    313.452038	      0.020638	      0.169195	      0.249911	      0.114759	      0.247322	      0.109771	      0.995625	      0.057897	      0.668944	      0.056106	      0.020976	      0.039600
      0.424721	    -18.935071	    346.921885	    179.310423	    310.516746	      0.020634	      0.169234	      0.249944	      0.114725	      0.247366	      0.109737	      0.995731	      0.057891	      0.659618	      0.056100	      0.020970	      0.039587
      0.425491	    -18.666642	    350.441565	    179.547665	    305.837832	      0.020628	      0.169453	      0.249994	      0.114672	      0.247430	      0.109684	      0.995892	      0.057881	      0.645368	      0.056092	      0.020960	      0.039568
      0.426261	    -18.395486	    353.993849	    179.781269	    301.073428	      0.020621	      0.169464	      0.250040	      0.114620	      0.247489	      0.109632	      0.996048	      0.057872	      0.631711	      0.056086	      0.020950	      0.039549
      0.426719	    -18.232768	    356.035417	    179.918613	    298.237940	      0.020617	      0.169507	      0.250065	      0.114589	      0.247522	      0.109601	      0.996138	      0.057866	      0.623847	      0.056083	      0.020944	      0.039539
      0.427239	    -18.047029	    358.312806	    180.072863	    295.011830	      0.020613	      0.169643	      0.250092	      0.114554	      0.247558	      0.109567	      0.996237	      0.057859	      0.615155	      0.056081	      0.020938	      0.039527
      0.427759	    -17.860105	    360.594149	    180.225427	    291.758030	      0.020609	      0.169665	      0.250118	      0.114520	      0.247591	      0.109533	      0.996334	      0.057852	      0.606700	      0.056079	      0.020932	      0.039515
      0.428181	    -17.707645	    362.401966	    180.347918	    289.119795	      0.020606	      0.169718	      0.250137	      0.114492	      0.247616	      0.109505	      0.996411	      0.057846	      0.600009	      0.056077	      0.020926	      0.039506
      0.428712	    -17.514764	    364.638200	    180.500437	    285.796163	      0.020601	      0.169891	      0.250161	      0.114458	      0.247647	      0.109471	      0.996505	      0.057839	      0.591797	      0.056076	      0.020920	      0.039495
      0.429242	    -17.320689	    366.901625	    180.651184	    282.438896	      0.020597	      0.169899	      0.250183	      0.114424	      0.247675	      0.109437	      0.996597	      0.057831	      0.583805	      0.056075	      0.020913	      0.039484
      0.429636	    -17.175757	    368.528770	    180.762014	    279.955370	      0.020594	      0.169938	      0.250198	      0.114399	      0.247695	      0.109412	      0.996663	      0.057825	      0.578005	      0.056074	      0.020909	      0.039477
      0.429867	    -17.090715	    369.468103	    180.826368	    278.503619	      0.020592	      0.169976	      0.250207	      0.114385	      0.247707	      0.109398	      0.996702	      0.057822	      0.574667	      0.056074	      0.020906	      0.039472
      0.429958	    -17.057125	    369.836959	    180.851649	    277.930931	      0.020591	      0.169990	      0.250210	      0.114379	      0.247711	      0.109392	      0.996717	      0.057821	      0.573361	      0.056074	      0.020905	      0.039470
      0.430001	    -17.041081	    370.012660	    180.863697	    277.657567	      0.020592	      0.169997	      0.250206	      0.114376	      0.247708	      0.109389	      0.996724	      0.057820	      0.572770	      0.056074	      0.020940	      0.039470
